<?xml version="1.0" encoding="UTF-8" standalone="no"?>
<!-- Created with Inkscape (http://www.inkscape.org/) -->

<svg
   width="64"
   height="64"
   viewBox="0 0 16.933329 16.933328"
   version="1.1"
   id="svg5"
   inkscape:version="1.2.2 (732a01da63, 2022-12-09, custom)"
   sodipodi:docname="logo.svg"
   xmlns:inkscape="http://www.inkscape.org/namespaces/inkscape"
   xmlns:sodipodi="http://sodipodi.sourceforge.net/DTD/sodipodi-0.dtd"
   xmlns="http://www.w3.org/2000/svg"
   xmlns:svg="http://www.w3.org/2000/svg">
  <sodipodi:namedview
     id="namedview7"
     pagecolor="#ffffff"
     bordercolor="#000000"
     borderopacity="0.25"
     inkscape:showpageshadow="2"
     inkscape:pageopacity="0.0"
     inkscape:pagecheckerboard="0"
     inkscape:deskcolor="#d1d1d1"
     inkscape:document-units="mm"
     showgrid="false"
     inkscape:zoom="16"
     inkscape:cx="55.34375"
     inkscape:cy="52.96875"
     inkscape:window-width="1846"
     inkscape:window-height="1016"
     inkscape:window-x="74"
     inkscape:window-y="27"
     inkscape:window-maximized="1"
     inkscape:current-layer="g993" />
  <defs
     id="defs2" />
  <g
     inkscape:label="Calque 1"
     inkscape:groupmode="layer"
     id="layer1">
    <g
       id="g993"
       transform="matrix(1.0920285,0,0,1.0920285,0.55159302,-0.2181617)">
      <g
         id="g1168">
        <g
           id="g1051">
          <path
             id="path411"
             style="fill:#000000;stroke-width:0.264583"
             inkscape:transform-center-y="1.4997099"
             sodipodi:type="inkscape:offset"
             inkscape:radius="1.1191571"
             inkscape:original="M 2.0527344 3.2988281 L 7.2480469 12.296875 L 12.443359 3.2988281 L 2.0527344 3.2988281 z "
             d="m 2.0527344,2.1796875 a 1.119269,1.119269 0 0 0 -0.96875,1.6796875 l 5.1953125,8.998047 a 1.119269,1.119269 0 0 0 1.9375,0 L 13.412109,3.859375 a 1.119269,1.119269 0 0 0 -0.96875,-1.6796875 z"
             transform="translate(0,2.1166667)" />
          <path
             id="path533"
             style="fill:#ffffff;stroke-width:0.264583"
             inkscape:transform-center-y="1.098364"
             sodipodi:type="inkscape:offset"
             inkscape:radius="0.64602059"
             inkscape:original="M 10.101562 6.2695312 L 15.072266 14.880859 L 20.044922 6.2695312 L 10.101562 6.2695312 z "
             d="m 10.101562,5.6230469 a 0.64608519,0.64608519 0 0 0 -0.5585932,0.96875 l 4.9707032,8.6113281 a 0.64608519,0.64608519 0 0 0 1.117187,0 l 4.972657,-8.6113281 a 0.64608519,0.64608519 0 0 0 -0.558594,-0.96875 z"
             transform="matrix(0.76534587,0,0,0.76534587,-4.2881971,1.3357011)" />
        </g>
      </g>
      <g
         id="g954"
         transform="translate(-15.064734,-21.534956)">
        <rect
           style="fill:#000000;stroke-width:0.284979"
           id="rect888"
           width="9.4330921"
           height="1.1164148"
           x="17.145193"
           y="23.230526"
           ry="0.55820739" />
        <g
           id="g948">
          <rect
             style="fill:#000000;stroke-width:0.264583"
             id="rect890-7"
             width="2.8847234"
             height="0.81190521"
             x="33.480541"
             y="-2.7351243"
             ry="0.4059526"
             transform="rotate(45)" />
          <rect
             style="fill:#000000;stroke-width:0.264583"
             id="rect890-7-5"
             width="2.8847234"
             height="0.81190521"
             x="-0.16180894"
             y="-36.377472"
             ry="0.4059526"
             transform="matrix(0.70710678,-0.70710678,-0.70710678,-0.70710678,0,0)" />
        </g>
      </g>
      <g
         aria-label="2D"
         id="text1062"
         style="font-size:4.016px;font-family:'FreeSans Semi-Bold';-inkscape-font-specification:'FreeSans Semi-Bold';fill:#338000;stroke-width:0.154881">
        <path
           d="m 11.663941,13.173846 c 0,-0.550192 -0.377504,-0.9036 -0.975888,-0.9036 -0.590352,0 -0.9357278,0.349392 -0.9357278,0.951792 0,0.0241 0,0.05622 0.00402,0.1004 h 0.5381438 v -0.09237 c 0,-0.317264 0.148592,-0.502 0.405616,-0.502 0.248992,0 0.4016,0.172688 0.4016,0.457824 0,0.313248 -0.09638,0.44176 -0.726896,0.88352 -0.4779038,0.333328 -0.6305118,0.58232 -0.6586238,1.108416 h 1.9357118 v -0.502 h -1.2048 c 0.24096,-0.510032 1.216848,-0.650592 1.216848,-1.501984 z"
           style="-inkscape-font-specification:'FreeSans Semi-Bold'"
           id="path315" />
        <path
           d="m 12.149876,15.17783 h 1.14456 c 0.445776,0 0.726896,-0.104416 0.92368,-0.34136 0.232928,-0.273088 0.357424,-0.670672 0.357424,-1.12448 0,-0.449792 -0.124496,-0.847376 -0.357424,-1.12448 -0.196784,-0.236944 -0.473888,-0.337344 -0.92368,-0.337344 h -1.14456 z m 0.6024,-0.502 v -1.923664 h 0.54216 c 0.453808,0 0.678704,0.317264 0.678704,0.96384 0,0.64256 -0.224896,0.959824 -0.678704,0.959824 z"
           style="-inkscape-font-specification:'FreeSans Semi-Bold'"
           id="path317" />
      </g>
    </g>
  </g>
</svg>
